# xmcd CD database file
#
# Track frame offsets:
#	150
#	20307
#	37933
#	62786
#	81929
#	103042
#	125890
#	148950
#	169638
#	200958
#	225325
#	247284
#	282964
#
# Disc length: 4688 seconds
#
# Revision: 3
# Processed by: cddbd v1.5PL3 Copyright (c) Steve Scherf et al.
# Submitted via: CDex 1.40Beta8
#
DISCID=c1124e0d
DTITLE=SOEHNE MANNHEIMS - ZION
DYEAR=1900
DGENRE=Rap
TTITLE0=VOLLE KRAFT VORRAUS
TTITLE1=THE POWER OF THE SOUND
TTITLE2=JAH IS CHANGING ALL
TTITLE3=KOMM' HEIM
TTITLE4=WIR HABEN ALLEN GÖTTERN ABGESCHWOR'N
TTITLE5=SOFERN DU MIR NAH BIST
TTITLE6=DEIN GLÜCK LIEGT MIR AM HERZEN
TTITLE7=GEH DAVON AUS ...
TTITLE8=ARMAGEDDON
TTITLE9=WIR HABEN EUCH NOCH NICHTS GETAN
TTITLE10=IHR WISST NICHT WO DER HIMMEL IST
TTITLE11=MEINE STADT
TTITLE12=PEACE GEHT RAUS
EXTD=ID3G: 15
EXTT0=
EXTT1=
EXTT2=
EXTT3=
EXTT4=
EXTT5=
EXTT6=
EXTT7=
EXTT8=
EXTT9=
EXTT10=
EXTT11=
EXTT12=
PLAYORDER=
